<?xml version="1.0" encoding="UTF-8"?>
<svg width="172px" height="29px" viewBox="0 0 172 29" version="1.1" xmlns="http://www.w3.org/2000/svg" xmlns:xlink="http://www.w3.org/1999/xlink">
    <!-- Generator: Sketch 47.1 (45422) - http://www.bohemiancoding.com/sketch -->
    <title>rkz</title>
    <desc>Created with Sketch.</desc>
    <defs></defs>
    <g id="Page-1" stroke="none" stroke-width="1" fill="none" fill-rule="evenodd">
        <g id="rkz">
            <g id="Group-24">
                <g id="Group-23-Copy" transform="translate(0.000000, 4.262540)" fill="#000000">
                    <path d="M10.7519418,4.18898879 C11.5791678,4.18898879 12.2607452,4.24733067 12.7966944,4.36401618 L12.3947345,8.19711594 C11.812181,8.05709334 11.2063344,7.98708308 10.5771767,7.98708308 C8.93437582,7.98708308 7.60326106,8.52382837 6.58379245,9.59733504 C5.56432384,10.6708417 5.05459718,12.0652126 5.05459718,13.7804896 L5.05459718,23.8970725 L0.947615607,23.8970725 L0.947615607,4.53904356 L4.1632948,4.53904356 L4.70506684,7.9520776 L4.91478504,7.9520776 C5.55559388,6.79689108 6.3915456,5.88092358 7.42266528,5.20414763 C8.45378496,4.52737169 9.56353271,4.18898879 10.7519418,4.18898879 Z M22.533134,24.2471273 C19.527158,24.2471273 17.1765899,23.369082 15.4813592,21.6129651 C13.7861286,19.8568482 12.938526,17.4385774 12.938526,14.35808 C12.938526,11.1959027 13.7249614,8.71053866 15.2978558,6.90191328 C16.8707502,5.09328791 19.0319913,4.18898879 21.7816437,4.18898879 C24.333228,4.18898879 26.3488329,4.96493578 27.8285187,6.51685303 C29.3082046,8.06877029 30.0480364,10.2040831 30.0480364,12.9228554 L30.0480364,15.1457032 L17.1678432,15.1457032 C17.2260985,17.0243399 17.7329124,18.4683014 18.6883002,19.477631 C19.6436879,20.4869607 20.9893663,20.9916179 22.7253757,20.9916179 C23.8671805,20.9916179 24.9303247,20.8836854 25.9148401,20.6678172 C26.8993555,20.4519491 27.9566742,20.0931465 29.086828,19.5913988 L29.086828,22.9344219 C28.084836,23.4128325 27.0712081,23.7512154 26.045914,23.9495808 C25.0206198,24.1479461 23.8497049,24.2471273 22.533134,24.2471273 Z M21.7816437,7.30447627 C20.4767239,7.30447627 19.4310561,7.71870361 18.6446089,8.54717072 C17.8581617,9.37563782 17.3892131,10.5833147 17.2377492,12.1702376 L26.0109609,12.1702376 C25.9876588,10.5716462 25.6031793,9.36105218 24.8575108,8.53841935 C24.1118423,7.71578652 23.0865636,7.30447627 21.7816437,7.30447627 Z M46.1284519,18.3837099 C46.1284519,20.2740151 45.4410491,21.7238108 44.0662228,22.7331404 C42.6913966,23.7424701 40.7223953,24.2471273 38.15916,24.2471273 C35.5842735,24.2471273 33.5162397,23.8562367 31.9549963,23.0744438 L31.9549963,19.5213879 C34.2269549,20.5715574 36.3415924,21.0966343 38.2989721,21.0966343 C40.8272542,21.0966343 42.0913764,20.3323557 42.0913764,18.8037756 C42.0913764,18.3136964 41.9515656,17.9053033 41.6719399,17.5785839 C41.3923143,17.2518645 40.9321039,16.9134816 40.2912951,16.563425 C39.6504862,16.2133685 38.7591928,15.8166437 37.6173879,15.3732388 C35.3920336,14.509766 33.8861554,13.6463062 33.0997082,12.7828335 C32.313261,11.9193607 31.9200433,10.7991966 31.9200433,9.42230765 C31.9200433,7.76537344 32.587057,6.47893501 33.9211045,5.56295377 C35.255152,4.64697254 37.0697789,4.18898879 39.3650397,4.18898879 C41.6369983,4.18898879 43.7865884,4.64988963 45.8138746,5.57170514 L44.4856592,8.66968989 C42.4001177,7.80621713 40.646658,7.37448723 39.2252275,7.37448723 C37.0581285,7.37448723 35.9745953,7.99291114 35.9745953,9.22977753 C35.9745953,9.83654217 36.2571295,10.3499507 36.8222064,10.7700185 C37.3872833,11.1900864 38.6193654,11.767671 40.5184898,12.5027897 C42.1146864,13.1212229 43.2739504,13.6871391 43.9963167,14.2005553 C44.7186831,14.7139715 45.2546243,15.3061416 45.6041563,15.9770833 C45.9536884,16.648025 46.1284519,17.4502258 46.1284519,18.3837099 Z M56.1969453,20.921607 C57.1989373,20.921607 58.2009143,20.7640839 59.2029063,20.449033 L59.2029063,23.5470178 C58.7485146,23.7453831 58.1630571,23.9116575 57.4465163,24.0458458 C56.7299755,24.1800341 55.987231,24.2471273 55.2182603,24.2471273 C51.326803,24.2471273 49.3811036,22.1934932 49.3811036,18.0861633 L49.3811036,7.65453105 L46.7421494,7.65453105 L46.7421494,5.83424622 L49.5733452,4.3290107 L50.9714666,0.233369849 L53.5055616,0.233369849 L53.5055616,4.53904356 L59.0106646,4.53904356 L59.0106646,7.65453105 L53.5055616,7.65453105 L53.5055616,18.0161523 C53.5055616,19.0079792 53.7531432,19.7401697 54.2483136,20.212746 C54.7434841,20.6853224 55.3930215,20.921607 56.1969453,20.921607 Z M78.6388131,14.1830526 C78.6388131,17.3452298 77.8290758,19.8130913 76.2095771,21.586711 C74.5900784,23.3603307 72.3356302,24.2471273 69.4461649,24.2471273 C67.6402491,24.2471273 66.0440765,23.8387342 64.6575992,23.0219356 C63.2711219,22.205137 62.205065,21.0324653 61.4593965,19.5038851 C60.713728,17.975305 60.3408994,16.2017119 60.3408994,14.1830526 C60.3408994,11.0442124 61.1448112,8.5938535 62.7526588,6.83190233 C64.3605064,5.06995116 66.6266055,4.18898879 69.551024,4.18898879 C72.3472808,4.18898879 74.5609508,5.09037082 76.1921006,6.89316191 C77.8232504,8.69595301 78.6388131,11.1258923 78.6388131,14.1830526 Z M64.5702166,14.1830526 C64.5702166,18.6521075 66.2188182,20.8866015 69.516071,20.8866015 C72.7783705,20.8866015 74.4094959,18.6521075 74.4094959,14.1830526 C74.4094959,9.76067182 72.7667197,7.54951461 69.481118,7.54951461 C67.7567596,7.54951461 66.5072011,8.12126503 65.732405,9.264783 C64.9576089,10.408301 64.5702166,12.0477078 64.5702166,14.1830526 Z M91.5909319,4.18898879 C92.4181578,4.18898879 93.0997352,4.24733067 93.6356844,4.36401618 L93.2337245,8.19711594 C92.651171,8.05709334 92.0453245,7.98708308 91.4161667,7.98708308 C89.7733659,7.98708308 88.4422511,8.52382837 87.4227825,9.59733504 C86.4033139,10.6708417 85.8935872,12.0652126 85.8935872,13.7804896 L85.8935872,23.8970725 L81.7866056,23.8970725 L81.7866056,4.53904356 L85.0022848,4.53904356 L85.5440569,7.9520776 L85.7537751,7.9520776 C86.3945839,6.79689108 87.2305356,5.88092358 88.2616553,5.20414763 C89.292775,4.52737169 90.4025227,4.18898879 91.5909319,4.18898879 Z M107.024716,23.8970725 L106.20332,21.2016508 L106.063508,21.2016508 C105.131422,22.3801744 104.193525,23.1823752 103.249788,23.6082773 C102.306052,24.0341794 101.094359,24.2471273 99.6146728,24.2471273 C97.7155484,24.2471273 96.232972,23.7337188 95.1668991,22.7068863 C94.1008262,21.6800538 93.5677978,20.2273411 93.5677978,18.3487044 C93.5677978,16.3533822 94.3076296,14.8481617 95.7873155,13.8329978 C97.2670014,12.8178339 99.5214496,12.263586 102.550728,12.1702376 L105.888743,12.0652212 L105.888743,11.0325596 C105.888743,9.79569323 105.600383,8.87097445 105.023655,8.25837553 C104.446927,7.64577661 103.552721,7.33948175 102.341009,7.33948175 C101.350669,7.33948175 100.401121,7.48533645 99.4923372,7.77705022 C98.5835537,8.06876399 97.7097366,8.41298107 96.8708596,8.8097118 L95.5426443,5.8692517 C96.5912405,5.32082981 97.7388537,4.90368538 98.9855182,4.61780589 C100.232183,4.33192639 101.408923,4.18898879 102.515775,4.18898879 C104.97415,4.18898879 106.829555,4.72573407 108.082045,5.79924075 C109.334535,6.87274742 109.960771,8.55882772 109.960771,10.8575322 L109.960771,23.8970725 L107.024716,23.8970725 Z M100.907935,21.0966343 C102.399272,21.0966343 103.596401,20.6794899 104.499359,19.8451885 C105.402317,19.0108871 105.853789,17.8411325 105.853789,16.3358894 L105.853789,14.6556265 L103.372124,14.7606429 C101.438046,14.8306543 100.031201,15.1544517 99.1515451,15.7320449 C98.2718893,16.3096382 97.832068,17.1935177 97.832068,18.3837099 C97.832068,19.2471826 98.0883877,19.9151971 98.6010348,20.3877734 C99.1136819,20.8603497 99.8826409,21.0966343 100.907935,21.0966343 Z M131.126853,23.8970725 L127.002395,23.8970725 L127.002395,11.9952102 C127.002395,10.5016357 126.702384,9.38730585 126.102354,8.65218715 C125.502324,7.91706845 124.549864,7.54951461 123.244944,7.54951461 C121.508934,7.54951461 120.238987,8.06292315 119.435063,9.08975562 C118.631139,10.1165881 118.229183,11.8376735 118.229183,14.2530635 L118.229183,23.8970725 L114.122202,23.8970725 L114.122202,4.53904356 L117.337881,4.53904356 L117.914606,7.07694067 L118.124324,7.07694067 C118.706878,6.15512516 119.534091,5.44335424 120.60599,4.94160655 C121.677888,4.43985887 122.866279,4.18898879 124.171199,4.18898879 C128.808325,4.18898879 131.126853,6.55183488 131.126853,11.277598 L131.126853,23.8970725 Z" id="restoran.by-copy"></path>
                </g>
                <path d="M137.050849,26.7943985 C137.050849,25.6508806 137.516885,25.0791302 138.44897,25.0791302 C139.404358,25.0791302 139.882045,25.6508806 139.882045,26.7943985 C139.882045,27.9379165 139.404358,28.5096669 138.44897,28.5096669 C137.516885,28.5096669 137.050849,27.9379165 137.050849,26.7943985 Z M146.035798,19.8108058 L155.735265,9.13413522 L157.832448,9.13413522 L150.352498,17.255406 L158.479079,28.1596122 L156.399373,28.1596122 L149.181571,18.5506086 L146.070751,21.3860523 L146.070751,28.1596122 L144.340576,28.1596122 L144.340576,0.925350783 L146.070751,0.925350783 L146.070751,14.5774869 L145.948416,19.8108058 L146.035798,19.8108058 Z M171.903063,28.1596122 L158.341286,28.1596122 L158.341286,27.0569396 L169.61364,10.6743762 L159.162682,10.6743762 L159.162682,9.13413522 L171.86811,9.13413522 L171.86811,10.2368078 L160.525851,26.6193712 L171.903063,26.6193712 L171.903063,28.1596122 Z" id=".kz" fill="#F46D3E"></path>
            </g>
        </g>
    </g>
</svg>