<svg width="48" height="47" viewBox="0 0 48 47" xmlns="http://www.w3.org/2000/svg"><g fill="none" fill-rule="evenodd"><path d="M14.512 13.51c7.888-7.243 14.56-7.243 22.902-7.243-.098.14 2.775 5.135 4.164 5.135-.073.042-4.133 3.048-2.51 8.967 1.623 5.92 3.184 12.23 2.51 15.14-.098-.038-37.404 0-37.404 0s2.45-14.756 10.338-22z" fill="#D64329"/><path d="M15.367 14.158c7.31-6.707 13.88-6.918 21.61-6.918-.02.027 0 1.095 3.05 4.89-.067.04-3.474 2.93-1.97 8.412 1.503 5.48 3.114 11.23 2.49 13.925-.09-.037-34.737 0-34.737 0s2.248-13.602 9.557-20.31z" fill="#FF5C3F"/><g transform="translate(35.478)"><ellipse fill="#D64329" cx="6.261" cy="6.264" rx="6.261" ry="6.264"/><ellipse fill="#FFF" cx="6.263" cy="6.267" rx="5.22" ry="5.222"/></g><g transform="translate(0 32.378)"><rect fill="#D64329" width="45.913" height="14.622" rx="6"/><rect fill="#FFF" x="1.043" y="1.044" width="43.826" height="12.533" rx="5"/></g></g></svg>